<?xml version="1.0" encoding="UTF-8"?>
<svg xmlns="http://www.w3.org/2000/svg" xmlns:xlink="http://www.w3.org/1999/xlink" width="50px" height="50px" viewBox="0 0 50 50" version="1.1">
<g id="surface1">
<path style=" stroke:none;fill-rule:nonzero;fill:rgb(100%,100%,100%);fill-opacity:1;" d="M 0.339844 0.335938 L 0.339844 49.667969 L 49.671875 49.667969 L 49.671875 0.335938 Z M 0.339844 0.335938 "/>
<path style=" stroke:none;fill-rule:evenodd;fill:rgb(100%,92.941176%,0%);fill-opacity:1;" d="M 0.339844 49.667969 L 0.339844 0.335938 L 49.671875 0.335938 L 49.671875 49.667969 Z M 45.386719 25.570312 C 45.820312 24.292969 46.308594 22.375 46.390625 20.839844 C 46.449219 19.679688 46.292969 18.058594 45.199219 16.902344 C 44.328125 15.980469 42.996094 15.515625 41.238281 15.515625 C 39.019531 15.515625 37.230469 16.300781 35.921875 17.847656 L 35.578125 18.253906 L 35.347656 17.773438 C 35.160156 17.382812 35.027344 17.21875 34.824219 16.992188 C 33.929688 15.980469 32.429688 15.464844 30.367188 15.464844 C 28.476562 15.464844 26.769531 16.03125 25.558594 17.0625 L 25.253906 17.320312 L 25.042969 16.976562 C 24.46875 16.046875 23.042969 15.445312 21.410156 15.445312 C 19.0625 15.449219 16.691406 15.765625 15.261719 18.070312 L 14.671875 19.023438 L 14.625 17.902344 C 14.589844 17.035156 14.507812 16.675781 14.105469 16.25 C 13.664062 15.777344 12.917969 15.550781 11.824219 15.550781 C 10.222656 15.550781 9.019531 16.25 8.144531 17.6875 C 6.796875 19.839844 3.535156 26.925781 3.609375 30.289062 C 3.65625 32.476562 5.113281 33.8125 7.507812 33.867188 C 9.484375 33.914062 11.054688 33.410156 12.050781 32.402344 L 12.304688 32.144531 L 12.550781 32.410156 C 13.445312 33.382812 14.808594 33.917969 16.386719 33.917969 C 18.394531 33.917969 20.113281 33.292969 21.101562 32.203125 L 21.371094 31.90625 L 21.625 32.21875 C 22.546875 33.355469 23.976562 33.949219 25.75 33.941406 C 28.070312 33.933594 30.234375 32.867188 31.691406 31.023438 L 32.070312 30.539062 L 32.285156 31.117188 C 33.183594 33.558594 35.613281 33.921875 36.984375 33.921875 C 41.640625 33.921875 43.652344 30.726562 45.386719 25.570312 Z M 45.386719 25.570312 "/>
<path style=" stroke:none;fill-rule:evenodd;fill:rgb(89.019608%,0%,4.313725%);fill-opacity:1;" d="M 0.339844 49.667969 L 0.339844 0.335938 L 49.671875 0.335938 L 49.671875 49.667969 Z M 45.695312 29.183594 C 46.339844 27.855469 47.554688 24.527344 47.777344 22.730469 L 47.78125 22.710938 C 48.054688 20.519531 48.3125 18.445312 46.832031 16.382812 C 45.78125 14.917969 43.988281 13.9375 41.261719 13.9375 C 39.203125 13.9375 37.363281 14.496094 35.890625 15.71875 C 34.628906 14.472656 32.824219 13.90625 30.390625 13.90625 C 28.484375 13.90625 26.886719 14.339844 25.496094 15.175781 C 24.488281 14.375 23.300781 13.871094 21.414062 13.871094 C 19.699219 13.871094 17.296875 13.960938 15.484375 15.5 C 15.0625 14.644531 14.210938 13.972656 11.859375 13.972656 C 9.695312 13.972656 7.929688 15 6.769531 16.898438 C 5.222656 19.371094 1.9375 26.507812 2.023438 30.402344 C 2.085938 33.339844 4.285156 35.359375 7.472656 35.4375 C 9.386719 35.480469 11.019531 35.070312 12.265625 34.246094 C 13.390625 35.054688 14.828125 35.492188 16.425781 35.492188 C 18.339844 35.492188 20.066406 34.992188 21.34375 34.089844 C 22.503906 35.007812 24.023438 35.503906 25.746094 35.503906 C 27.976562 35.507812 30.050781 34.734375 31.726562 33.269531 C 32.871094 34.726562 34.828125 35.484375 37.203125 35.484375 C 41.65625 35.484375 43.96875 32.746094 45.695312 29.183594 Z M 45.695312 29.183594 "/>
<path style=" stroke:none;fill-rule:evenodd;fill:rgb(0%,0%,0%);fill-opacity:1;" d="M 0 50 L 0 0 L 50 0 L 50 50 Z M 49.3125 49.3125 L 49.3125 0.6875 L 0.6875 0.6875 L 0.6875 49.3125 Z M 49.3125 49.3125 "/>
<path style=" stroke:none;fill-rule:evenodd;fill:rgb(0%,0%,0%);fill-opacity:1;" d="M 46.558594 15.082031 C 46.558594 14.765625 46.683594 14.460938 46.910156 14.234375 C 47.132812 14.011719 47.4375 13.886719 47.757812 13.886719 C 48.074219 13.886719 48.378906 14.011719 48.605469 14.234375 C 48.828125 14.460938 48.957031 14.765625 48.957031 15.082031 C 48.957031 15.402344 48.828125 15.707031 48.605469 15.929688 C 48.378906 16.15625 48.074219 16.28125 47.757812 16.28125 C 47.4375 16.28125 47.132812 16.15625 46.910156 15.929688 C 46.683594 15.707031 46.558594 15.402344 46.558594 15.082031 Z M 47.757812 14.125 C 48.289062 14.125 48.722656 14.550781 48.722656 15.085938 C 48.722656 15.617188 48.289062 16.046875 47.757812 16.046875 C 47.503906 16.046875 47.257812 15.945312 47.078125 15.765625 C 46.898438 15.585938 46.796875 15.339844 46.796875 15.085938 C 46.796875 14.832031 46.898438 14.585938 47.078125 14.40625 C 47.257812 14.222656 47.503906 14.121094 47.757812 14.125 Z M 48.222656 15.460938 L 48.367188 15.710938 L 48.054688 15.710938 L 47.957031 15.507812 C 47.914062 15.417969 47.855469 15.339844 47.789062 15.265625 C 47.738281 15.214844 47.695312 15.203125 47.585938 15.203125 L 47.539062 15.203125 L 47.539062 15.710938 L 47.28125 15.710938 L 47.28125 14.46875 L 47.898438 14.46875 C 48.167969 14.46875 48.292969 14.617188 48.292969 14.816406 C 48.292969 15.003906 48.164062 15.136719 47.957031 15.164062 L 47.957031 15.167969 C 48.0625 15.207031 48.097656 15.242188 48.222656 15.460938 Z M 47.539062 14.664062 L 47.539062 15.003906 L 47.796875 15.003906 C 47.96875 15.003906 48.027344 14.917969 48.023438 14.832031 C 48.023438 14.722656 47.9375 14.660156 47.769531 14.660156 Z M 35.65625 17.625 C 36.863281 16.195312 38.652344 15.167969 41.238281 15.167969 C 45.710938 15.167969 46.878906 18.09375 46.734375 20.859375 C 46.648438 22.519531 46.113281 24.5 45.714844 25.683594 C 43.945312 30.941406 41.820312 34.265625 36.984375 34.265625 C 34.777344 34.265625 32.757812 33.40625 31.960938 31.234375 C 30.507812 33.074219 28.289062 34.277344 25.753906 34.289062 C 23.816406 34.296875 22.3125 33.613281 21.355469 32.4375 C 20.21875 33.691406 18.296875 34.265625 16.386719 34.265625 C 14.667969 34.265625 13.234375 33.667969 12.296875 32.644531 C 11.246094 33.703125 9.601562 34.265625 7.5 34.214844 C 4.8125 34.152344 3.3125 32.539062 3.261719 30.300781 C 3.1875 26.835938 6.488281 19.679688 7.851562 17.507812 C 8.789062 15.96875 10.09375 15.210938 11.824219 15.210938 C 12.777344 15.210938 13.75 15.378906 14.355469 16.015625 C 14.851562 16.542969 14.933594 17.007812 14.96875 17.890625 C 16.492188 15.4375 19.054688 15.105469 21.410156 15.105469 C 23.210938 15.105469 24.707031 15.78125 25.332031 16.800781 C 26.539062 15.773438 28.277344 15.121094 30.363281 15.121094 C 32.5 15.121094 34.089844 15.644531 35.078125 16.761719 C 35.296875 17.007812 35.453125 17.199219 35.65625 17.625 Z M 12.109375 29.699219 C 12.1875 28.859375 11.558594 27.957031 9.058594 28.390625 C 9.304688 27.832031 9.675781 27.070312 10.09375 26.203125 C 11.441406 23.425781 13.296875 19.589844 13.332031 18.085938 C 13.351562 17.347656 13.054688 16.730469 11.851562 16.730469 C 10.585938 16.730469 9.789062 17.261719 9.136719 18.332031 C 7.722656 20.585938 4.722656 27.394531 4.785156 30.339844 C 4.820312 32.019531 6.125 32.683594 7.574219 32.71875 C 9.570312 32.765625 11.871094 32.203125 12.109375 29.699219 Z M 17.207031 26.078125 C 17.039062 26.527344 16.726562 27.464844 16.472656 28.460938 C 17.292969 28.253906 17.910156 28.113281 18.964844 28.136719 C 20.167969 28.167969 20.9375 28.664062 20.9375 29.660156 C 20.9375 32.070312 18.269531 32.777344 16.425781 32.777344 C 14.394531 32.777344 12.613281 31.625 12.613281 29.402344 C 12.613281 26.800781 14.023438 22.859375 15.34375 20.230469 C 16.96875 17.003906 18.628906 16.574219 21.488281 16.574219 C 22.746094 16.574219 24.195312 17.113281 24.195312 18.300781 C 24.195312 19.945312 22.804688 20.570312 21.421875 20.652344 C 20.832031 20.683594 19.921875 20.71875 19.378906 20.679688 C 19.378906 20.679688 18.917969 21.378906 18.429688 22.625 C 20.988281 22.265625 22.074219 22.847656 21.644531 24.328125 C 21.058594 26.328125 19.324219 26.457031 17.207031 26.078125 Z M 28.308594 20.769531 C 28.644531 20.296875 29.09375 19.859375 29.789062 19.859375 C 30.636719 19.859375 30.554688 20.308594 30.351562 20.882812 C 29.78125 22.515625 31.507812 22.558594 31.929688 22.523438 C 33.4375 22.40625 34.269531 21.433594 34.472656 19.773438 C 34.753906 17.511719 32.847656 16.644531 30.4375 16.644531 C 26.414062 16.644531 24.835938 19.105469 23.328125 22.621094 C 22.621094 24.273438 21.730469 27.097656 21.730469 28.894531 C 21.730469 31.421875 23.265625 32.789062 25.742188 32.789062 C 29.359375 32.789062 31.914062 29.90625 32.644531 26.3125 C 32.867188 25.207031 33.144531 23.132812 30.335938 23.25 C 28.910156 23.308594 28.050781 23.621094 27.597656 25.078125 C 27.132812 26.578125 28.824219 26.621094 28.824219 26.621094 C 28.484375 28.171875 27.488281 29.113281 26.597656 29.113281 C 26.042969 29.113281 25.539062 28.871094 25.707031 27.699219 C 25.960938 25.984375 27.566406 21.8125 28.308594 20.769531 Z M 44.976562 22.828125 C 44.550781 24.945312 43.597656 27.449219 42.558594 29.316406 C 40.863281 32.363281 38.808594 32.789062 37.011719 32.765625 C 35.214844 32.746094 33.191406 32.082031 33.175781 29.3125 C 33.164062 27.320312 34.023438 24.511719 34.75 22.671875 C 36.019531 19.335938 37.316406 16.617188 41.417969 16.664062 C 46.203125 16.722656 45.347656 20.976562 44.976562 22.828125 Z M 38.980469 28.253906 C 39.644531 27.128906 41.515625 22.019531 41.566406 20.742188 C 41.582031 20.367188 41.519531 19.9375 40.921875 19.929688 C 40.507812 19.921875 40.152344 20.003906 39.828125 20.5 C 39.105469 21.4375 36.992188 27.21875 37.027344 28.371094 C 37.039062 28.785156 37.269531 29.148438 37.78125 29.148438 C 38.367188 29.148438 38.691406 28.742188 38.980469 28.253906 Z M 38.980469 28.253906 "/>
</g>
</svg>
